<?xml version="1.0" standalone="no"?>
<!--
  - This file is part of MyPasswordGen.
  -
  - MyPasswordGen is free software: you can redistribute it and/or modify it under the terms of the GNU General Public License as published by the Free Software Foundation, either version 3 of the License, or (at your option) any later version.
  -
  - MyPasswordGen is distributed in the hope that it will be useful, but WITHOUT ANY WARRANTY; without even the implied warranty of MERCHANTABILITY or FITNESS FOR A PARTICULAR PURPOSE. See the GNU General Public License for more details.
  -
  - You should have received a copy of the GNU General Public License along with MyPasswordGen. If not, see <https://www.gnu.org/licenses/>.
  -->

<!DOCTYPE svg PUBLIC "-//W3C//DTD SVG 20010904//EN"
        "http://www.w3.org/TR/2001/REC-SVG-20010904/DTD/svg10.dtd">
<svg version="1.0" xmlns="http://www.w3.org/2000/svg"
     width="700.000000pt" height="700.000000pt" viewBox="0 0 700.000000 700.000000"
     preserveAspectRatio="xMidYMid meet">
    <metadata>
        Created by potrace 1.14, written by Peter Selinger 2001-2017
    </metadata>
    <g transform="translate(0.000000,700.000000) scale(0.100000,-0.100000)"
       fill="#000000" stroke="none">
        <path d="M3329 6856 c-2 -2 -33 -6 -69 -10 -68 -6 -108 -12 -150 -22 -32 -8
-58 -13 -93 -19 -62 -12 -248 -80 -352 -129 -243 -116 -468 -292 -633 -496
-29 -36 -57 -71 -63 -78 -35 -43 -139 -220 -180 -307 -97 -206 -142 -382 -165
-650 -4 -38 -8 -79 -9 -90 -1 -11 -3 -397 -4 -857 l-1 -836 -458 -153 c-251
-83 -459 -155 -462 -160 -6 -9 -6 -1847 0 -1851 3 -2 421 -210 930 -463 l925
-461 925 1 925 1 923 462 922 462 1 53 c2 210 0 1799 -3 1801 -2 2 -210 72
-463 156 l-460 152 0 837 c0 881 -5 1012 -50 1226 -29 138 -91 309 -163 445
-35 67 -145 238 -179 277 -10 11 -33 39 -51 62 -91 111 -249 250 -392 345
-202 134 -500 250 -723 281 -27 4 -59 9 -70 11 -26 6 -352 15 -358 10z m217
-930 c106 -8 261 -47 349 -90 138 -65 318 -256 398 -420 92 -191 95 -220 96
-1053 l1 -691 -42 13 c-24 8 -232 77 -464 154 l-421 141 -461 -154 c-254 -85
-462 -154 -463 -153 0 1 -1 301 -1 667 -1 843 1 866 89 1060 122 270 397 476
693 519 103 15 123 17 135 15 6 -1 47 -5 91 -8z m64 -2897 c51 -17 89 -39 147
-86 96 -80 152 -194 157 -323 8 -163 -64 -303 -207 -405 l-28 -21 120 -481
c66 -265 122 -488 123 -495 2 -11 -82 -13 -458 -15 -426 -1 -461 0 -458 15 10
43 235 949 240 963 3 11 -9 25 -34 42 -212 140 -265 442 -114 642 122 162 320
225 512 164z"/>
    </g>
</svg>
